<svg xmlns="http://www.w3.org/2000/svg" width="1024" height="1024"><path d="M143.685 179.017c-4.916 1.475-9.83 6.058-12.313 11.482l-2.386 5.212.257 271.895.257 271.894 2.777 4.723a21.33 21.33 0 007.5 7.5l4.723 2.777 144.695.5 144.696.5-13.889 33.21c-7.639 18.265-14.38 34.127-14.98 35.25-1.082 2.021-1.69 2.04-65.541 2.04h-64.449l-3.078 2.75c-5.822 5.203-4.744 15.239 2.013 18.733C276.565 848.826 303.866 849 512.5 849c259.012 0 239.651.475 242.983-5.967 2.447-4.732 1.941-9.527-1.401-13.267l-2.917-3.266-65.333-.5-65.332-.5-14.67-35-14.671-35 144.749-.5 144.749-.5 4.878-3.015c3.55-2.196 5.637-4.471 7.671-8.365l2.794-5.348v-270.52c0-211.153-.27-271.423-1.23-274.636-1.579-5.286-8.367-12.133-13.419-13.535-4.708-1.308-733.313-1.371-737.666-.064M153 426.5V652h719V201H153v225.5m389.578-116.75c-3.669 13.063-21.429 76.4-39.468 140.75l-32.797 117 12.98.28c7.139.154 13.191.069 13.449-.188.343-.344 48.362-171.279 78.191-278.342l.906-3.25h-26.59l-6.671 23.75M358 374.851l-89.5 37.809-.275 15.566-.275 15.567 7.275 3.042c4.001 1.673 44.625 19.017 90.275 38.541l83 35.499.276-16.112c.151-8.862-.074-16.43-.5-16.819-.427-.389-32.653-13.89-71.614-30.002-63.645-26.319-70.601-29.413-68.5-30.469 1.286-.646 33.501-13.939 71.588-29.539L449 369.569v-16.284c0-8.957-.337-16.275-.75-16.264-.413.012-41.025 17.035-90.25 37.83m239-21.667v16.398l70.58 29.014c38.819 15.957 70.517 29.439 70.438 29.959-.078.52-31.277 13.849-69.33 29.621-38.053 15.772-69.767 29.047-70.475 29.5-.983.629-1.22 4.648-1 16.993l.287 16.168 89.5-38.251 89.5-38.251.274-15.927.273-15.926-88.273-37.215c-48.551-20.468-89.062-37.499-90.024-37.847-1.621-.587-1.75.572-1.75 15.764M153 703.5V731h719v-55H153v27.5m306.672 52.241C458.477 757.726 431 824.068 431 824.969c0 .7 26.196 1.031 81.5 1.031 64.546 0 81.495-.26 81.476-1.25-.013-.687-6.439-16.55-14.28-35.25l-14.256-34-52.656-.259c-28.96-.142-52.861.083-53.112.5" fill="undefined" fill-rule="evenodd"/></svg>